<svg width="80" height="80" viewBox="0 0 48 48" xmlns="http://www.w3.org/2000/svg"><defs><linearGradient x1="0%" y1="112.438%" y2="-17.474%" id="a"><stop stop-color="#41C292" offset="0%"/><stop stop-color="#86DC79" offset="100%"/></linearGradient></defs><g fill-rule="nonzero" fill="none"><circle fill="url(#a)" cx="24" cy="24" r="24"/><g fill="#FFF"><path d="M33.484 18.9c.383-.4.383-1.05 0-1.45l-.747-.779a.956.956 0 0 0-1.39 0l-.915.958c-1.38-1.204-3.066-2.029-4.933-2.315v-1.138h.52c.541 0 1.003-.476 1.003-1.045V12.03c0-.564-.462-1.03-1.002-1.03h-3.99c-.541 0-1.003.466-1.003 1.03v1.101c0 .564.462 1.045 1.002 1.045h.521v1.138c-4.815.737-8.506 5.071-8.506 10.286 0 5.733 4.477 10.395 9.976 10.395 5.498 0 9.975-4.662 9.975-10.395 0-2.059-.575-3.98-1.572-5.594l1.061-1.106zm-1.445-1.501l.747.778-.938.979a11.035 11.035 0 0 0-.703-.83l.894-.927zm-10.03-4.247v-1.127h4.03v1.127H22.01zm1.524 1.024h.983v1.04c-.197-.01-.334-.01-.491-.01-.158 0-.295.005-.492.01v-1.04zm.492 20.794c-4.959 0-8.988-4.206-8.988-9.37 0-5.164 4.03-9.375 8.988-9.375 4.958 0 8.987 4.206 8.987 9.375 0 5.17-4.03 9.37-8.987 9.37z" stroke="#FFF" stroke-width=".5"/><path d="M24.03 15H23.915c-5.37.064-9.73 4.627-9.847 10.271a.67.67 0 0 0 .006.593c.184 5.567 4.502 10.052 9.81 10.13.031.006.056.006.086.006.025 0 .05 0 .074-.006 5.492 0 9.957-4.704 9.957-10.49C34 19.71 29.53 15 24.03 15zm.551 19.692v-1.199c0-.354-.275-.644-.612-.644-.336 0-.611.29-.611.644v1.192c-4.288-.347-7.719-3.956-8.043-8.473h1.07c.337 0 .612-.29.612-.644 0-.355-.275-.645-.612-.645h-1.082c.269-4.575 3.725-8.26 8.055-8.608v1.198c0 .354.275.644.611.644.337 0 .612-.29.612-.644v-1.205c4.385.29 7.902 3.995 8.177 8.615h-1.204c-.337 0-.612.29-.612.645 0 .354.275.644.612.644h1.192c-.33 4.556-3.822 8.196-8.165 8.48z"/><path d="M26.457 22.424c.27 0 .491-.23.491-.512a.504.504 0 0 0-.491-.512h-4.86c-.27 0-.491.23-.491.512 0 .282.22.512.491.512h1.39c.708 0 1.308.512 1.52 1.178h-2.91c-.27 0-.491.231-.491.513 0 .282.22.512.491.512h2.91a1.586 1.586 0 0 1-1.52 1.127h-1.39a.492.492 0 0 0-.457.323.53.53 0 0 0 .118.563l3.48 3.428a.481.481 0 0 0 .697-.02.526.526 0 0 0-.02-.723l-2.585-2.546h.158c1.253 0 2.3-.922 2.53-2.152h.939c.27 0 .491-.23.491-.512a.504.504 0 0 0-.491-.513h-.939c-.078-.46-.255-.82-.506-1.178h1.445z"/></g></g></svg>