<svg width="80" height="80" viewBox="0 0 80 80" xmlns="http://www.w3.org/2000/svg"><defs><linearGradient x1="21.217%" y1="94.944%" x2="76.232%" y2="1.724%" id="a"><stop stop-color="#6AC7FF" offset="0%"/><stop stop-color="#148AFF" offset="100%"/></linearGradient><filter x="-22.7%" y="-18.8%" width="158.9%" height="150%" filterUnits="objectBoundingBox" id="b"><feOffset dx="2" dy="2" in="SourceAlpha" result="shadowOffsetOuter1"/><feGaussianBlur stdDeviation="2" in="shadowOffsetOuter1" result="shadowBlurOuter1"/><feColorMatrix values="0 0 0 0 0 0 0 0 0 0 0 0 0 0 0 0 0 0 0.0954483696 0" in="shadowBlurOuter1" result="shadowMatrixOuter1"/><feMerge><feMergeNode in="shadowMatrixOuter1"/><feMergeNode in="SourceGraphic"/></feMerge></filter></defs><g fill="none" fill-rule="evenodd"><path d="M40 0C17.908 0 0 17.908 0 40s17.908 40 40 40 40-17.908 40-40S62.092 0 40 0z" fill="url(#a)"/><g filter="url(#b)" transform="translate(27 24)" fill="#FFF" fill-rule="nonzero"><path d="M7 21.333H3.667A3.337 3.337 0 0 1 .333 18v-4.667A3.337 3.337 0 0 1 3.667 10H7c.368 0 .667.298.667.667v10a.666.666 0 0 1-.667.666zm-3.333-10c-1.103 0-2 .897-2 2V18c0 1.103.897 2 2 2h2.666v-8.667H3.667zm19.333 10h-3.333a.666.666 0 0 1-.667-.666v-10c0-.369.299-.667.667-.667H23a3.337 3.337 0 0 1 3.333 3.333V18A3.337 3.337 0 0 1 23 21.333zM20.333 20H23c1.103 0 2-.897 2-2v-4.667c0-1.103-.897-2-2-2h-2.667V20z" stroke="#FFF"/><path d="M23 11.333a.666.666 0 0 1-.667-.666c0-5.147-4.187-9.334-9.333-9.334S3.667 5.52 3.667 10.667a.666.666 0 1 1-1.334 0C2.333 4.785 7.118 0 13 0s10.667 4.785 10.667 10.667a.666.666 0 0 1-.667.666zM13 32c-1.495 0-2.667-.878-2.667-2 0-1.122 1.172-2 2.667-2 1.495 0 2.667.878 2.667 2 0 1.122-1.172 2-2.667 2zm0-2.667c-.814 0-1.333.395-1.333.667s.52.667 1.333.667c.814 0 1.333-.395 1.333-.667s-.52-.667-1.333-.667z" stroke="#FFF"/><path d="M15 30.667a.666.666 0 1 1 0-1.334c3.86 0 7-3.888 7-8.666a.666.666 0 1 1 1.333 0c0 5.514-3.738 10-8.333 10z"/></g></g></svg>