<svg xmlns="http://www.w3.org/2000/svg" viewBox="0 0 1102.32 343.51"><defs><style>.cls-1{fill:#215389;}</style></defs><g id="Layer_2" data-name="Layer 2"><path class="cls-1" d="M268.86,329.41l-2.44-.19a80.87,80.87,0,0,0-10-.34,45.13,45.13,0,0,0-13.92,2.31,29.07,29.07,0,0,0-11.74,7.88c-3.21,3.48-5.55,7.55-8,11.56-.72,1.2-1.48,2.38-2.21,3.58-.2.33-.4.61-.84.61h-6.85a3.64,3.64,0,0,1,.14-.79c3.12-8.09,6.21-16.19,9.41-24.25,1.08-2.7,2.43-5.3,3.74-7.9a19.68,19.68,0,0,1,6.68-7.27,51,51,0,0,1,13.19-6.19,109.55,109.55,0,0,1,17.86-4.2c4.59-.69,9.2-1.29,13.82-1.75,3.37-.34,6.77-.48,10.16-.55,6.06-.12,12.13-.11,18.19-.16l9.31-.08c8.14-.08,16.27-.2,24.4-.21,12.06,0,24.11,0,36.17.08,4.62,0,9.24.09,13.86.13.62,0,1.25-.06,1.87-.11.87-.07,1.19.26,1.21,1.15,0,2.47.14,4.94.14,7.41,0,3.25-.08,6.49-.11,9.74,0,2.81,0,5.62,0,8.43v1.28c-.85.07-1.58.17-2.31.18-2.95.06-5.91.12-8.87.12-3.84,0-7.69-.06-11.53-.12q-7.16-.09-14.3-.22c-1.29,0-2.58-.08-3.88-.09-1,0-1,0-1.31,1a28.78,28.78,0,0,0-.84,3.65c-.57,3.94-1.13,7.88-1.6,11.83-.55,4.68-1,9.37-1.49,14.06-.3,3-.51,5.94-.77,8.92s-.55,5.94-.79,8.91c-.14,1.76-.21,3.53-.31,5.3-.14,2.57-.29,5.15-.4,7.73-.11,2.35-.21,4.71-.26,7.07-.1,3.88-.22,7.75-.21,11.63,0,3.14.08,6.28.3,9.4a54.63,54.63,0,0,0,3.09,14.9c1.48,4.07,3.85,7.53,7.73,9.65,7.29,4,14.59,4,21.75-.38a14.28,14.28,0,0,0,5-5.35,24.87,24.87,0,0,0,3.3-8.18c.24-1.63.28-3.3.4-4.95,0-.39,0-.79,0-1.24h7.4c0,.9.08,1.81,0,2.71-.24,2.45-.46,4.91-.85,7.35a62.14,62.14,0,0,1-8.82,24.16c-6.46,10.07-15.6,16-27.49,17.61a33.87,33.87,0,0,1-19.74-3.06,31.4,31.4,0,0,1-16-17.74,54.4,54.4,0,0,1-3.17-14.1,57.5,57.5,0,0,1,.41-12.23c.22-2,.39-4,.56-5.94q.52-6,1-11.89c.19-2.2.34-4.4.53-6.61.33-3.85.69-7.7,1-11.55.18-2.13.33-4.26.5-6.39.29-3.64.6-7.27.89-10.91q.48-6.27.92-12.56c.24-3.31.43-6.62.68-9.93s.55-6.75.84-10.12.59-6.68.87-10c.08-.91.12-1.83.18-2.86a10.27,10.27,0,0,0-1.41-.18q-15.48,0-31,0c-1.74,0-3.47.06-5.21.1-.9,0-1,0-1.23.94-.41,1.72-.84,3.45-1.08,5.19q-.76,5.36-1.33,10.75c-.2,1.9-.22,3.82-.32,5.74-.13,2.61-.27,5.23-.4,7.84-.09,1.95-.16,3.9-.27,5.86-.18,3.16-.4,6.32-.58,9.48-.12,2.06-.18,4.13-.31,6.19-.17,2.65-.38,5.29-.57,7.93-.11,1.58-.18,3.17-.32,4.75q-.48,5.61-1,11.22c-.28,2.93-.56,5.86-.92,8.78-1.42,11.54-3.25,23-6.65,34.14A70.93,70.93,0,0,1,267.67,461a35,35,0,0,1-10.74,11.6,17.93,17.93,0,0,1-9.22,3.13,15.7,15.7,0,0,1-4.9-.74,18.89,18.89,0,0,1-9.21-5.26,23.56,23.56,0,0,1-6.1-12,16.75,16.75,0,0,1,1.73-10.3,64.87,64.87,0,0,1,5.61-9c3.07-4.43,6.21-8.82,9.21-13.3A137.43,137.43,0,0,0,257.62,399a159.91,159.91,0,0,0,5.95-19.34,139.46,139.46,0,0,0,3.61-19.44c.42-3.81.8-7.62,1.1-11.43.23-2.94.35-5.89.45-8.84.12-3.36.15-6.71.22-10.07A3.83,3.83,0,0,0,268.86,329.41Z" transform="translate(-131.26 -216.82)"/><path class="cls-1" d="M474.77,388.57a171.66,171.66,0,1,1-92-152.13q4.17,2.19,8.24,4.63a8.07,8.07,0,0,1-5.63,14.75,6.73,6.73,0,0,1-1.41-.33,10.05,10.05,0,0,1-1.36-.76c-1-.59-2-1.17-3-1.74-1.43-.81-2.87-1.59-4.32-2.36A156,156,0,0,0,303,232.86c-84.72,0-153.85,68-155.68,152.3a155.48,155.48,0,0,0,159.1,159.09c84.29-1.82,152.3-71,152.3-155.68A154.5,154.5,0,0,0,446,326.72q-1.31-3-2.76-6c-.49-1-1-2-1.51-3-.89-1.73-1.87-3.26-2-5.25a8.13,8.13,0,0,1,1.18-4.59,8,8,0,0,1,3.36-3.05,8.15,8.15,0,0,1,9.37,1.68,7.41,7.41,0,0,1,.82,1h0c2.25,4.2,4.33,8.5,6.22,12.84A170.79,170.79,0,0,1,474.77,388.57Z" transform="translate(-131.26 -216.82)"/><path class="cls-1" d="M458.15,279.5a17,17,0,0,1-29,12l-7.33-7.32,3.58-3.58,7.33,7.32h0a11.92,11.92,0,1,0,0-16.85h0L412.32,291.5a17,17,0,1,1,0-24l1.68,1.69a4.41,4.41,0,0,0-3.58,3.58l-1.68-1.69a11.92,11.92,0,1,0,0,16.85l20.43-20.43a17,17,0,0,1,29,12Z" transform="translate(-131.26 -216.82)"/><path class="cls-1" d="M418.12,274.39a2.49,2.49,0,0,1-2.48,2.49,2.44,2.44,0,0,1-1.6-.59,2.48,2.48,0,0,1,1.6-4.38,2.45,2.45,0,0,1,1.89.88A2.42,2.42,0,0,1,418.12,274.39Z" transform="translate(-131.26 -216.82)"/><path class="cls-1" d="M880.68,397a39.85,39.85,0,0,1-1.95,12.85,34.14,34.14,0,0,1-5.4,10.18,34.88,34.88,0,0,1-8.22,7.61,48,48,0,0,1-10.54,5.25,65.17,65.17,0,0,1-12.29,3,99,99,0,0,1-14.55,1H792.36a8.38,8.38,0,0,1-5.71-2q-2.31-2-2.31-6.53v-116q0-4.53,2.31-6.53a8.38,8.38,0,0,1,5.71-2h33.41a89.33,89.33,0,0,1,20.72,2.06,40.74,40.74,0,0,1,14.3,6.22,27.62,27.62,0,0,1,8.89,10.54,34.06,34.06,0,0,1,3.09,15,32.7,32.7,0,0,1-1.24,9.1,27,27,0,0,1-3.6,7.76,26.33,26.33,0,0,1-5.81,6.17,29.1,29.1,0,0,1-7.86,4.32,35.29,35.29,0,0,1,10.43,3.6,29.67,29.67,0,0,1,8.33,6.63,31,31,0,0,1,5.61,9.51A34.54,34.54,0,0,1,880.68,397Zm-35-56a19.91,19.91,0,0,0-1.23-7.2,13,13,0,0,0-3.7-5.29,16.91,16.91,0,0,0-6.22-3.24,36.11,36.11,0,0,0-10-1.13H810.87v34.55H826a26,26,0,0,0,9.36-1.39,16.19,16.19,0,0,0,5.81-3.81,15.36,15.36,0,0,0,3.44-5.65A20.71,20.71,0,0,0,845.72,340.94Zm6.89,57a21,21,0,0,0-1.54-8.28,15.87,15.87,0,0,0-4.53-6.12,20.85,20.85,0,0,0-7.6-3.8,44.57,44.57,0,0,0-12-1.34h-16v37.84H830.4a32.79,32.79,0,0,0,9.51-1.18,19.57,19.57,0,0,0,6.69-3.5,16.1,16.1,0,0,0,4.42-5.76A18.55,18.55,0,0,0,852.61,397.91Z" transform="translate(-131.26 -216.82)"/><path class="cls-1" d="M975.49,425.57a44.27,44.27,0,0,1-.26,5.19,15.72,15.72,0,0,1-.77,3.49,4.43,4.43,0,0,1-1.29,2,2.78,2.78,0,0,1-1.79.62h-61a8.42,8.42,0,0,1-5.71-2q-2.31-2-2.31-6.53V307.52a2.85,2.85,0,0,1,.67-1.85,4.61,4.61,0,0,1,2.21-1.33,21.31,21.31,0,0,1,4.16-.83,69.46,69.46,0,0,1,13.11,0,21.29,21.29,0,0,1,4.12.83,4.71,4.71,0,0,1,2.21,1.33,2.9,2.9,0,0,1,.67,1.85v107h41.85a2.92,2.92,0,0,1,1.79.57,4.06,4.06,0,0,1,1.29,1.85,14,14,0,0,1,.77,3.39A44.34,44.34,0,0,1,975.49,425.57Z" transform="translate(-131.26 -216.82)"/><path class="cls-1" d="M1018.57,433.18a2.85,2.85,0,0,1-.67,1.85,4.61,4.61,0,0,1-2.21,1.33,21.33,21.33,0,0,1-4.11.83,71.76,71.76,0,0,1-13.11,0,21.43,21.43,0,0,1-4.17-.83,4.71,4.71,0,0,1-2.21-1.33,2.89,2.89,0,0,1-.66-1.85V307.52a2.89,2.89,0,0,1,.66-1.85,4.69,4.69,0,0,1,2.27-1.33,22.47,22.47,0,0,1,4.16-.83,57.22,57.22,0,0,1,6.48-.31,58.4,58.4,0,0,1,6.58.31,21.33,21.33,0,0,1,4.11.83,4.61,4.61,0,0,1,2.21,1.33,2.85,2.85,0,0,1,.67,1.85Z" transform="translate(-131.26 -216.82)"/><path class="cls-1" d="M1136.1,314.93a43.16,43.16,0,0,1-.26,5.09,14,14,0,0,1-.77,3.39,4.5,4.5,0,0,1-1.28,1.9,2.68,2.68,0,0,1-1.7.62h-33.32V433.18a2.89,2.89,0,0,1-.66,1.85,4.71,4.71,0,0,1-2.21,1.33,21.43,21.43,0,0,1-4.17.83,71.22,71.22,0,0,1-13.06,0,21.31,21.31,0,0,1-4.16-.83,4.61,4.61,0,0,1-2.21-1.33,2.85,2.85,0,0,1-.67-1.85V325.93h-33.32a2.57,2.57,0,0,1-1.74-.62,4.65,4.65,0,0,1-1.24-1.9,14,14,0,0,1-.77-3.39,43.16,43.16,0,0,1-.26-5.09,45.63,45.63,0,0,1,.26-5.25,14,14,0,0,1,.77-3.44,4.19,4.19,0,0,1,1.24-1.85,2.7,2.7,0,0,1,1.74-.57h93.78a2.81,2.81,0,0,1,1.7.57,4.07,4.07,0,0,1,1.28,1.85,14,14,0,0,1,.77,3.44A45.63,45.63,0,0,1,1136.1,314.93Z" transform="translate(-131.26 -216.82)"/><path class="cls-1" d="M1233.58,426.18a41.78,41.78,0,0,1-.26,5,13.77,13.77,0,0,1-.77,3.34,3.68,3.68,0,0,1-1.29,1.8,2.93,2.93,0,0,1-1.69.52h-78.46a8.21,8.21,0,0,1-6.32-2.37c-1.48-1.57-2.21-3.87-2.21-6.89V423.1a25.35,25.35,0,0,1,.25-3.75,19.65,19.65,0,0,1,.88-3.45,23.2,23.2,0,0,1,1.8-3.8c.79-1.37,1.76-3,2.93-4.94l51.62-81.85h-51.21a3.86,3.86,0,0,1-2.11-.56,4.17,4.17,0,0,1-1.44-1.8,11.74,11.74,0,0,1-.82-3.29,40.82,40.82,0,0,1-.26-4.94,44,44,0,0,1,.26-5.19,12.36,12.36,0,0,1,.82-3.39,3.74,3.74,0,0,1,1.44-1.8,4,4,0,0,1,2.11-.52h73.52q4.22,0,6.22,2.16a8.57,8.57,0,0,1,2,6.07v5a38.49,38.49,0,0,1-.26,4.78,18.62,18.62,0,0,1-.93,3.9,23.28,23.28,0,0,1-1.8,3.91q-1.12,2-2.87,4.78l-50.8,80.72h55.63c1.3,0,2.29.82,3,2.47S1233.58,422.14,1233.58,426.18Z" transform="translate(-131.26 -216.82)"/><path class="cls-1" d="M611.33,300.07a104.06,104.06,0,0,1,30.11,4.18,64.37,64.37,0,0,1,23.9,12.83A59.49,59.49,0,0,1,681,338.82q5.67,13.1,5.67,31.19,0,17.28-4.86,30.24A59,59,0,0,1,668,422a56.05,56.05,0,0,1-21.47,13.1,85.52,85.52,0,0,1-28,4.32A64.68,64.68,0,0,1,597,435.9v44.83a76,76,0,0,1-8.65,1.76,78.43,78.43,0,0,1-12.15.94,63.57,63.57,0,0,1-10.67-.81,18.15,18.15,0,0,1-8-3.24,14.67,14.67,0,0,1-4.86-6.62,30.81,30.81,0,0,1-1.62-10.93V332.2q0-7.29,3.1-11.88a32.79,32.79,0,0,1,8.51-8.37,71.56,71.56,0,0,1,20.79-8.64A110.33,110.33,0,0,1,611.33,300.07Zm.54,103.15q27.81,0,27.81-33.21,0-17.28-6.88-25.66T613,336a31.93,31.93,0,0,0-9.18,1.22,36.47,36.47,0,0,0-7,2.83v59.41a38.76,38.76,0,0,0,7,2.7A29,29,0,0,0,611.87,403.22Z" transform="translate(-131.26 -216.82)"/><path class="cls-1" d="M708,267.66a23.73,23.73,0,0,1,6.89-17.28q6.89-7,18.23-7t18.23,7a25.14,25.14,0,0,1,0,34.56q-6.89,7-18.23,7t-18.23-7A23.73,23.73,0,0,1,708,267.66Zm48.07,167.43c-2,.36-4.9.85-8.77,1.49a73.13,73.13,0,0,1-11.75.94,63.57,63.57,0,0,1-10.67-.81,18.15,18.15,0,0,1-8-3.24,15.55,15.55,0,0,1-5-6.62,28.59,28.59,0,0,1-1.75-10.93V306c2-.36,4.9-.86,8.77-1.49a73,73,0,0,1,11.75-.94,63.65,63.65,0,0,1,10.67.81,18.2,18.2,0,0,1,8,3.24,15.58,15.58,0,0,1,5,6.61,28.71,28.71,0,0,1,1.75,10.94Z" transform="translate(-131.26 -216.82)"/></g></svg>